<?xml version="1.0" encoding="utf-8"?>
<!-- Generator: Adobe Illustrator 18.0.0, SVG Export Plug-In . SVG Version: 6.00 Build 0)  -->
<!DOCTYPE svg PUBLIC "-//W3C//DTD SVG 1.1//EN" "http://www.w3.org/Graphics/SVG/1.1/DTD/svg11.dtd">
<svg version="1.1" id="Layer_1" xmlns="http://www.w3.org/2000/svg" xmlns:xlink="http://www.w3.org/1999/xlink" x="0px" y="0px"
	 viewBox="0 0 841.9 595.3" enable-background="new 0 0 841.9 595.3" xml:space="preserve">
<g>
	<path d="M446.8,461.7c-0.3,0-0.4-0.1-0.4-0.4v-19.1c0-0.1-0.1-0.3-0.3-0.3H440c-0.3,0-0.4-0.1-0.4-0.4v-1.1
		c0-0.3,0.1-0.4,0.4-0.4h14.5c0.3,0,0.4,0.1,0.4,0.4v1.1c0,0.3-0.1,0.4-0.4,0.4h-6.1c-0.1,0-0.3,0.1-0.3,0.3v19.1
		c0,0.3-0.1,0.4-0.4,0.4H446.8L446.8,461.7z"/>
	<path d="M457.7,457.3c-0.4-1.2-0.6-3.3-0.6-6.2c0-2.8,0.3-4.8,0.6-6.2c1.1-3.2,3.3-4.8,6.9-4.8
		c3.5,0,5.8,1.7,6.9,4.8c0.4,1.2,0.6,3.3,0.6,6.2c0,2.8-0.3,4.8-0.6,6.2c-1.1,3.2-3.3,4.8-6.9,4.8
		C461,461.9,458.7,460.3,457.7,457.3z M469.6,456.7c0.4-1.1,0.6-2.9,0.6-5.7c0-2.6-0.3-4.6-0.6-5.7c-0.8-2.5-2.5-3.6-5.1-3.6
		s-4.3,1.1-5.1,3.6c-0.4,1.1-0.6,2.9-0.6,5.7c0,2.6,0.3,4.6,0.6,5.7c0.8,2.5,2.5,3.6,5.1,3.6S468.9,459,469.6,456.7z"/>
	<path d="M477.2,461.7c-0.3,0-0.4-0.1-0.4-0.4v-20.6c0-0.3,0.1-0.4,0.4-0.4h7.2c4.1,0,6.5,2.3,6.5,6.1
		s-2.5,5.9-6.5,5.9h-5.5c-0.1,0-0.3,0.1-0.3,0.3v8.7c0,0.3-0.1,0.4-0.4,0.4H477.2z M484.2,450.8c3.2,0,4.8-1.5,4.8-4.3
		s-1.8-4.3-4.8-4.3h-5.4c-0.1,0-0.3,0.1-0.3,0.3v8.3c0,0.1,0.1,0.3,0.3,0.3L484.2,450.8L484.2,450.8z"/>
	<path d="M495.6,461.7c-0.3,0-0.4-0.1-0.4-0.4v-20.6c0-0.3,0.1-0.3,0.4-0.3h11.7c0.3,0,0.3,0.1,0.3,0.3v1.1
		c0,0.3-0.1,0.3-0.3,0.3h-10.1c-0.1,0-0.3,0.1-0.3,0.3v19.1c0,0.3-0.1,0.4-0.3,0.4L495.6,461.7L495.6,461.7z"/>
	<path d="M509.9,457.3c-0.4-1.2-0.6-3.3-0.6-6.2c0-2.8,0.3-4.8,0.6-6.2c1.1-3.2,3.3-4.8,6.9-4.8
		c3.6,0,5.8,1.7,6.9,4.8c0.4,1.2,0.6,3.3,0.6,6.2c0,2.8-0.3,4.8-0.6,6.2c-1.1,3.2-3.3,4.8-6.9,4.8
		C513.2,461.9,510.9,460.3,509.9,457.3z M521.9,456.7c0.4-1.1,0.6-2.9,0.6-5.7c0-2.6-0.3-4.6-0.6-5.7c-0.8-2.5-2.5-3.6-5.1-3.6
		s-4.3,1.1-5.1,3.6c-0.4,1.1-0.6,2.9-0.6,5.7c0,2.6,0.3,4.6,0.6,5.7c0.8,2.5,2.5,3.6,5.1,3.6S521.1,459,521.9,456.7z"/>
	<path d="M529.7,461.7c-0.3,0-0.4-0.1-0.4-0.4v-20.6c0-0.3,0.1-0.4,0.4-0.4h7.2c4,0,6.2,2.1,6.2,5.5
		c0,2.5-1.1,4.1-3.3,4.8v0.1c1,0.3,1.8,0.7,2.5,1.7c0.7,0.8,1.1,1.9,1.1,3.3c0,3.6-2.3,5.8-6.5,5.8L529.7,461.7L529.7,461.7z
		 M536.6,450.1c2.8,0,4.4-1.5,4.4-4c0-2.5-1.7-4-4.4-4h-5.5c-0.1,0-0.3,0.1-0.3,0.3v7.6c0,0.1,0.1,0.3,0.3,0.3L536.6,450.1
		L536.6,450.1z M536.8,460c2.9,0,4.7-1.7,4.7-4.1c0-2.6-1.7-4.1-4.7-4.1h-5.7c-0.1,0-0.3,0.1-0.3,0.3v7.9c0,0.1,0.1,0.3,0.3,0.3
		L536.8,460L536.8,460z"/>
	<path d="M546.1,461.7c-0.3,0-0.3-0.1-0.3-0.4l7.5-20.6c0.1-0.3,0.3-0.4,0.4-0.4h1.1c0.3,0,0.4,0.1,0.4,0.4l7.3,20.6
		c0.1,0.3,0,0.4-0.3,0.4h-1.1c-0.3,0-0.4-0.1-0.4-0.4l-1.9-5.2h-9.3l-1.9,5.2c-0.1,0.3-0.3,0.4-0.4,0.4H546.1z M550.1,454.4h8l-4-11
		H554L550.1,454.4z"/>
	<path d="M564.2,461.8c-0.3,0-0.4-0.1-0.4-0.4v-1.1c0-0.3,0.1-0.4,0.4-0.4h0.4c0.8,0,1.2-0.1,1.5-0.4
		s0.6-0.8,1.1-1.8l1.7-3.7c0.4-1,1-1.7,1.5-2.1v-0.1c-3.3-0.4-4.8-2.3-4.8-5.7c0-3.6,2.6-5.8,6.2-5.8h7.9c0.3,0,0.4,0.1,0.4,0.4
		v20.6c0,0.3-0.1,0.4-0.4,0.4h-1.1c-0.3,0-0.4-0.1-0.4-0.4v-9c0-0.1-0.1-0.3-0.3-0.3h-4.1c-1.2,0-2.2,0.7-2.8,1.9l-1.9,4.6
		c-0.8,2.1-1.9,2.9-3.9,2.9L564.2,461.8L564.2,461.8z M577.9,450.6c0.1,0,0.3-0.1,0.3-0.3v-8c0-0.1-0.1-0.3-0.3-0.3h-6
		c-2.8,0-4.6,1.4-4.6,4.1s1.9,4.1,4.6,4.1L577.9,450.6L577.9,450.6z"/>
	<path d="M593.1,457.3c-0.4-1.1-0.6-3.3-0.6-6.2s0.3-5,0.6-6.2c1.1-3.2,3.3-4.8,6.8-4.8c3,0,5.1,1.2,6.4,4
		c0.1,0.3,0.1,0.4-0.1,0.4l-1.3,0.3c-0.1,0.1-0.4,0.1-0.4-0.1c-1.1-1.9-2.6-3-4.8-3c-2.5,0-4.1,1.1-5,3.5c-0.4,1-0.4,2.8-0.4,5.7
		c0,2.9,0.1,4.8,0.4,5.7c0.8,2.3,2.5,3.5,5,3.5c2.1,0,3.7-1.1,4.8-3c0.1-0.3,0.3-0.3,0.4-0.1l1.1,0.4c0.1,0.1,0.3,0.3,0.1,0.4
		c-1.1,2.6-3.3,4-6.4,4C596.2,461.9,594,460.3,593.1,457.3z"/>
	<path d="M611,461.7c-0.3,0-0.4-0.1-0.4-0.4v-20.6c0-0.3,0.1-0.3,0.4-0.3h1.1c0.3,0,0.3,0.1,0.3,0.3v17.7h0.1
		l11.3-18c0-0.1,0.1-0.1,0.3-0.1h1.2c0.3,0,0.4,0.1,0.4,0.3v20.9c0,0.3-0.1,0.4-0.4,0.4h-1.1c-0.3,0-0.4-0.1-0.4-0.4v-17.7h-0.1
		l-11.3,18c0,0.1-0.1,0.1-0.3,0.1L611,461.7L611,461.7z"/>
	<path d="M631.3,457.3c-0.4-1.1-0.6-3.3-0.6-6.2s0.3-5,0.6-6.2c1.1-3.2,3.3-4.8,6.8-4.8c3,0,5.1,1.2,6.4,4
		c0.1,0.3,0.1,0.4-0.1,0.4l-1.1,0.4c-0.1,0.1-0.4,0.1-0.4-0.1c-1.1-1.9-2.6-3-4.8-3c-2.5,0-4.1,1.1-5,3.5c-0.4,1-0.4,2.8-0.4,5.7
		s0.1,4.8,0.4,5.7c0.8,2.3,2.5,3.5,5,3.5c2.1,0,3.7-1.1,4.8-3c0.1-0.3,0.3-0.3,0.4-0.1l1.1,0.4c0.1,0.1,0.3,0.3,0.1,0.4
		c-1.1,2.6-3.3,4-6.4,4C634.5,461.9,632.3,460.3,631.3,457.3z"/>
	<path d="M653.7,461.7c-0.3,0-0.4-0.1-0.4-0.4v-19.1c0-0.1-0.1-0.3-0.3-0.3h-6.1c-0.3,0-0.4-0.1-0.4-0.4v-1.1
		c0-0.3,0.1-0.4,0.4-0.4h14.4c0.3,0,0.4,0.1,0.4,0.4v1.1c0,0.3-0.1,0.4-0.4,0.4h-6.1c-0.1,0-0.3,0.1-0.3,0.3v19.1
		c0,0.3-0.1,0.4-0.4,0.4H653.7L653.7,461.7z"/>
	<path d="M665.7,461.7c-0.3,0-0.4-0.1-0.4-0.4v-20.6c0-0.3,0.1-0.4,0.4-0.4h12.2c0.3,0,0.4,0.1,0.4,0.4v1.1
		c0,0.3-0.1,0.4-0.4,0.4h-10.5c-0.1,0-0.3,0.1-0.3,0.3v7.6c0,0.1,0.1,0.3,0.3,0.3h9c0.3,0,0.4,0.1,0.4,0.4v1.1
		c0,0.3-0.1,0.4-0.4,0.4h-9c-0.1,0-0.3,0.1-0.3,0.3v7.9c0,0.1,0.1,0.3,0.3,0.3h10.5c0.3,0,0.4,0.1,0.4,0.4v1.1
		c0,0.3-0.1,0.4-0.4,0.4h-12.2V461.7z"/>
	<path d="M683.1,461.7c-0.3,0-0.4-0.1-0.4-0.4v-20.6c0-0.3,0.1-0.4,0.4-0.4h1.1c0.3,0,0.4,0.1,0.4,0.4l6.9,15.2h0.1
		l6.8-15.2c0.1-0.3,0.3-0.4,0.4-0.4h1.1c0.3,0,0.4,0.1,0.4,0.4v20.7c0,0.3-0.1,0.4-0.4,0.4h-1c-0.3,0-0.4-0.1-0.4-0.4v-16.6h-0.1
		l-6.1,13.4c-0.1,0.3-0.3,0.4-0.6,0.4h-0.4c-0.3,0-0.4-0.1-0.6-0.4l-6.1-13.4h-0.1v16.6c0,0.3-0.1,0.4-0.4,0.4L683.1,461.7
		L683.1,461.7z"/>
	<path d="M704.8,461.7c-0.3,0-0.3-0.1-0.3-0.4l7.5-20.6c0.1-0.3,0.3-0.4,0.4-0.4h1.1c0.3,0,0.4,0.1,0.4,0.4l7.3,20.6
		c0.1,0.3,0,0.4-0.3,0.4h-1c-0.3,0-0.4-0.1-0.4-0.4l-1.9-5.2h-9.3l-1.9,5.2c-0.1,0.3-0.3,0.4-0.4,0.4H704.8z M708.8,454.4h8l-4-11
		l0,0L708.8,454.4z"/>
</g>
<g>
	<path d="M171,348.2l-32,0l0,49.6l-12.9,0L126,277.2l44.9,0c21.9,0,37.3,13.9,37.3,35.4C208.2,334.1,192.8,348.2,171,348.2z
		 M169.9,288.7l-31,0l0,47.9l31,0c15.1,0,25.4-8.2,25.4-24.1C195.3,296.7,185,288.7,169.9,288.7z"/>
	<path d="M222.2,397.8l-0.1-120.6l12.9,0l0.1,109.1l61.7,0l0,11.5L222.2,397.8z"/>
	<path d="M342.1,398.7c-24.4,0-42-16.7-42-40.8l-0.1-80.8l12.9,0l0.1,79.8c0,18.3,11.5,30.3,29.2,30.3c17.6,0,29.3-12,29.3-30.3
		l-0.1-79.8l12.9,0l0.1,80.8C384.3,381.9,366.5,398.7,342.1,398.7z"/>
	<path d="M437.8,398.6c-18,0-30-4.6-41.2-15.9l8.6-8.6c10,10,19.3,13,32.9,13c17.8,0,28.6-8.2,28.6-22.4c0-6.4-1.9-11.5-5.9-15.1
		c-3.7-3.4-7.1-4.6-15.8-5.9l-14.1-2c-9.5-1.5-16.6-4.4-22-9.1c-6.1-5.4-9.3-12.9-9.3-22.7c0-20.5,14.7-33.9,38.6-33.9
		c15.4,0,25.6,4,35.9,13.2l-8.3,8.3c-7.3-6.9-15.6-10.5-28.1-10.5c-16.3,0-25.6,9-25.6,22.6c0,5.9,1.7,10.8,5.4,14.1
		c3.7,3.2,9.5,5.2,15.8,6.3l14.1,2.2c11.2,1.7,16.4,3.7,21.9,8.6c6.4,5.6,10.2,13.7,10.2,23.7C479.5,385.6,463.1,398.6,437.8,398.6z
		"/>
	<path d="M495.8,397.6L495.7,277l74.9-0.1l0,11.5l-62,0l0,42.5l52.9,0l0,11.5l-52.9,0l0,43.5l62,0l0,11.5L495.8,397.6z"/>
	<path d="M586.7,397.5l-0.1-120.6l12.9,0l0.1,109.1l61.7,0l0,11.5L586.7,397.5z"/>
	<path d="M673.1,397.5l-0.1-120.6l12.9,0l0.1,109.1l61.7,0l0,11.5L673.1,397.5z"/>
</g>
<linearGradient id="SVGID_1_" gradientUnits="userSpaceOnUse" x1="473.9481" y1="834.0145" x2="567.5746" y2="952.6078" gradientTransform="matrix(0.6264 0.7491 0.7491 -0.6264 -537.9631 317.6051)">
	<stop  offset="4.344710e-03" style="stop-color:#39AAE1"/>
	<stop  offset="1" style="stop-color:#E30080"/>
</linearGradient>
<path fill="url(#SVGID_1_)" d="M470.8,102.2c-25.9-31-72.2-35.1-103.3-9.1c-31,25.9-35.3,72.2-9.3,103.3c26,31.1,72.1,35.2,103.3,9
	C492.7,179.4,496.8,133.2,470.8,102.2z"/>
<path fill="#FFFFFF" d="M465.5,149.7c-1.6-1.6-3.7-3.1-6.1-4.4c-2.4-1.3-5.1-2.4-8.2-3.5c-2.8-1-5-2.1-6.5-3.3
	c-1.5-1.2-2.4-2.8-2.4-4.8c0-1.5,0.3-2.8,1-3.9c0.7-1.1,1.5-1.9,2.5-2.7c1-0.7,2.2-1.2,3.5-1.5s2.4-0.5,3.6-0.5
	c2.4,0,4.6,0.5,6.7,1.4c1.9,0.9,3.6,2.4,5,4.1l11.3-10c-1.2-1.5-2.5-2.8-4.2-3.9c-1.6-1.2-3.5-2.1-5.5-2.8c-1.9-0.8-4-1.4-6.2-1.8
	c-2.1-0.3-4.2-0.6-6.3-0.6c-4,0-7.6,0.6-11.1,1.6c-3.5,1-6.5,2.7-9.1,4.6c-1.9,1.6-3.7,3.4-5,5.5c-1-1.8-2.4-3.4-4.2-4.8
	c-4.4-3.5-10.8-5.2-19.2-5.2H382l-6.1,34.6h-14.7v-15.5h-5.5v15.5h-15.5v5.7h15.5v15.5h5.7v-15.5h13.7l-5.4,30.3h16.4l4.8-26.9h9.1
	c4.8,0,8.9-0.5,12.8-1.4c3.9-0.9,7.1-2.4,9.8-4.3c2.4-1.8,4.2-3.9,5.6-6.3c0.6,0.8,1.3,1.6,1.9,2.4c1.5,1.5,3.3,2.7,5.2,3.7
	c1.9,1,4.2,1.9,6.5,2.7c3.4,1.2,5.9,2.4,8,3.9c1.9,1.4,3,3.4,3,5.8c0,1.5-0.3,2.8-0.9,4c-0.6,1-1.5,1.9-2.5,2.7
	c-1,0.7-2.4,1.2-3.6,1.5c-1.4,0.3-2.8,0.5-4.2,0.5c-2.8,0-5.6-0.7-8.3-1.9c-2.7-1.3-4.8-3-6.2-5.2l-12.2,10.1
	c1.4,1.8,3.1,3.4,5.1,4.8c1.9,1.4,4.2,2.5,6.5,3.5c2.3,0.9,4.8,1.6,7.3,2.1c2.5,0.5,5,0.7,7.6,0.7c3.4,0,6.8-0.5,10.3-1.3
	c3.5-0.8,6.7-2.2,9.5-4.2c2.8-1.9,5.1-4.3,6.8-7.3c1.8-3,2.7-6.7,2.7-10.8c0-2.7-0.5-5-1.3-7.1C468.6,153.2,467.2,151.3,465.5,149.7
	z M410.6,142.1c-2.5,1.4-6.1,2.1-10.4,2.1h-7.1l3.1-17.2h6.8c1.6,0,3.1,0.1,4.6,0.3c1.4,0.3,2.5,0.7,3.6,1.3c1,0.6,1.8,1.4,2.4,2.4
	c0.6,1,0.8,2.4,0.8,3.9C414.6,138.4,413.2,140.8,410.6,142.1z"/>
</svg>
