<?xml version="1.0" encoding="utf-8"?>
<!-- Generator: Adobe Illustrator 18.0.0, SVG Export Plug-In . SVG Version: 6.00 Build 0)  -->
<!DOCTYPE svg PUBLIC "-//W3C//DTD SVG 1.1//EN" "http://www.w3.org/Graphics/SVG/1.1/DTD/svg11.dtd">
<svg version="1.1" id="Layer_1" xmlns="http://www.w3.org/2000/svg" xmlns:xlink="http://www.w3.org/1999/xlink" x="0px" y="0px"
	 viewBox="0 0 595.3 841.9" enable-background="new 0 0 595.3 841.9" xml:space="preserve">
<g id="Layer_1_1_" display="none">
	
		<linearGradient id="SVGID_1_" gradientUnits="userSpaceOnUse" x1="3.4" y1="751.89" x2="176.6" y2="751.89" gradientTransform="matrix(3.3071 0 0 -3.3071 0 2907.5291)">
		<stop  offset="6.576800e-04" style="stop-color:#E5DF00"/>
		<stop  offset="1" style="stop-color:#39AAE1"/>
	</linearGradient>
	<path display="inline" fill="url(#SVGID_1_)" d="M523.8,425.9c-9.6-9.6-21.2-18.2-35.1-25.5c-7.3-4-14.9-7.6-22.8-10.9l33.7-90.6
		c7.6,5,13.9,10.9,19.5,18.5l64.8-57.2c-6.6-8.3-14.6-15.9-24.1-22.2c-9.6-6.6-19.8-11.9-31.1-16.2l0,0l19.5-52.6h-22.5l-17.2,46
		c-5-1.3-9.9-2.6-14.9-3.6c-1.7-0.3-3-0.3-4.6-0.7l15.5-42h-22.5l-14.6,39.7c-3.3-0.3-6.6-0.3-9.9-0.3c-22.5,0-43.7,3-63.5,9.6
		c-19.8,6.3-37,15.2-51.9,26.8c-0.3,0-0.3,0.3-0.7,0.7c-25.1-17.2-59.9-26.1-104.2-26.1H103.8L87,315.4H11.2V335h72.1L80,353.8H11.2
		V374h65.2l-44,250H127l27.4-154.1h51.9c27.1,0,51.6-2.6,73.4-7.9c21.8-5.3,40.7-13.6,56.2-24.8c2.6-2,5-4,7.6-6.3
		c3,1.7,5.6,3.3,8.6,4.6c8.3,4,17.2,7.6,26.1,11.2L341.6,545c-0.7-0.3-1.3-0.7-2-1c-15.5-7.6-27.4-17.5-35.4-29.8l-70.4,57.2
		c7.9,10.3,17.9,19.5,29.1,27.4c11.6,7.9,23.8,14.6,37,19.8c4,1.7,8.3,2.6,12.6,4.3L294,672.9h22.5l16.5-44.3c3,0.7,6,1.7,8.9,2
		c3.6,0.7,7.3,1,10.9,1.7l-15.2,40.7h22.5l14.6-38.7c3.6,0.3,7.3,0.7,10.9,0.7c19.5,0,39-2.6,58.9-7.6c19.8-5,37.7-12.9,53.9-23.8
		c15.9-10.9,29.1-24.8,39.4-42s15.2-38,15.2-62.5c0-15.2-2.6-28.8-7.3-41C540.7,446.1,533.4,435.5,523.8,425.9z M480.9,290
		l-34.4,91.9c-1.7-0.7-3-1-4.3-1.7c-5-1.7-9.6-3.6-13.9-5.6l32.7-88.3C468,286.7,474.6,288,480.9,290z M185.2,295.3h39
		c9.6,0,18.2,0.7,26.5,2c7.9,1.3,14.9,3.6,20.5,7.3c4.3,2.6,7.6,6.3,10.6,10.3H181.6L185.2,295.3z M177.9,335H289c0.3,2,0.3,4,0.3,6
		c0,4.6-0.3,8.9-1.3,12.9H174.6L177.9,335z M267.2,382.6c-14.6,7.9-34.4,11.9-59.2,11.9h-40.7L171,374h107.2
		C275.2,377.3,271.5,380.3,267.2,382.6z M404.8,361.4c-8.9-6.6-13.6-15.9-13.6-27.1c0-8.9,2-16.2,6-22.2c4-6,8.9-11.2,14.9-15.2
		c6-4,12.6-6.9,19.8-8.6c2.3-0.7,4.3-0.7,6.3-1l-28.8,77.4C407.8,363.7,406.1,362.7,404.8,361.4z M362.1,552.6l36.4-98.2
		c6.6,2.3,12.6,5,18.2,7.6L382,555.5C375.4,555.2,368.7,554.2,362.1,552.6z M447.5,529.1c-3.6,6.3-8.6,11.6-14.6,15.5
		c-6,4-13.2,6.9-20.8,8.6c-2.3,0.7-5,0.7-7.3,1.3l30.4-81.7c0.3,0,0.3,0.3,0.7,0.3c11.6,8.3,17.2,19.5,17.2,33.4
		C453.1,515.5,451.1,522.8,447.5,529.1z"/>
</g>
<linearGradient id="SVGID_2_" gradientUnits="userSpaceOnUse" x1="202.8834" y1="597.7296" x2="435.8668" y2="194.1905">
	<stop  offset="0" style="stop-color:#3BA9E0"/>
	<stop  offset="0.3448" style="stop-color:#44A0D9"/>
	<stop  offset="0.5098" style="stop-color:#677DC5"/>
	<stop  offset="0.8738" style="stop-color:#C12592"/>
	<stop  offset="1" style="stop-color:#E1057F"/>
</linearGradient>
<path fill="url(#SVGID_2_)" d="M544.3,412.4c-7.1-7.1-15.7-13.4-25.9-18.9c-10.2-5.5-21.8-10.5-34.8-15.1
	c-11.9-4.2-21.2-8.8-27.8-13.8c-6.7-5-10-11.7-10-20.2c0-6.5,1.5-12,4.5-16.6c3-4.5,6.7-8.3,11-11.3c4.4-3,9.3-5.1,14.7-6.4
	c5.4-1.3,10.5-1.9,15.3-1.9c10.5,0,20,2,28.5,5.9c8.5,4,15.6,9.8,21.2,17.4l48-42.5c-4.8-6.2-10.8-11.7-17.8-16.6
	c-7.1-4.8-14.8-8.8-23.2-12.1c-8.4-3.3-17.1-5.7-26.1-7.4c-9.1-1.7-18-2.5-26.8-2.5c-16.7,0-32.4,2.3-47.2,7
	c-14.7,4.7-27.6,11.3-38.7,20c-8.6,6.7-15.7,14.5-21.4,23.4c-4.5-7.6-10.4-14.4-17.9-20.2c-18.8-14.7-46-22.1-81.4-22.1h-99
	l-26,147.3h-62.4v-66.1H76.7v66.1H10.6v24.4h66.1v66.1h24.4v-66.1h58.1l-22.8,129.1h70.1L227,445.1h38.7c20.1,0,38.3-2,54.6-5.9
	c16.3-4,30.2-10.1,41.8-18.5c10-7.2,18-16.2,24-26.8c2.5,3.6,5.3,7,8.5,10.1c6.4,6.2,13.9,11.5,22.5,15.7
	c8.6,4.2,17.9,8.1,27.8,11.5c14.2,4.8,25.5,10.3,34,16.4c8.5,6.1,12.7,14.4,12.7,24.9c0,6.5-1.4,12.1-4,16.8
	c-2.7,4.7-6.3,8.5-10.8,11.5c-4.5,3-9.7,5.1-15.5,6.4c-5.8,1.3-11.8,1.9-18.1,1.9c-11.9,0-23.7-2.8-35.3-8.5
	c-11.6-5.7-20.4-13-26.3-22.1l-52.3,42.5c5.9,7.6,13.2,14.4,21.7,20.4c8.5,5.9,17.7,10.8,27.6,14.7c9.9,3.8,20.2,6.7,31,8.7
	c10.8,2,21.5,3,32.3,3c14.4,0,29-1.8,43.8-5.5c14.7-3.7,28-9.6,39.9-17.6c11.9-8.1,21.6-18.5,29.1-31.2
	c7.5-12.7,11.3-28.2,11.3-46.3c0-11.3-1.8-21.5-5.5-30.4C556.8,427.5,551.4,419.5,544.3,412.4z M310.9,380.3
	c-10.9,5.8-25.6,8.8-44,8.8h-30.2l13.2-73.5h28.9c7.1,0,13.6,0.5,19.5,1.5c5.9,1,11,2.8,15.3,5.3c4.3,2.6,7.6,6.1,10,10.5
	c2.4,4.4,3.6,9.9,3.6,16.4C327.3,364.1,321.8,374.4,310.9,380.3z"/>
</svg>
